<svg width="91" height="91" viewBox="0 0 91 91" fill="none" xmlns="http://www.w3.org/2000/svg">
<g filter="url(#filter0_d_1_3)">
<path d="M45.5 70C59.031 70 70 59.031 70 45.5C70 31.969 59.031 21 45.5 21C31.969 21 21 31.969 21 45.5C21 59.031 31.969 70 45.5 70Z" fill="#65C466"/>
<g clip-path="url(#clip0_1_3)">
<path d="M60.5571 57.6111H30.4425C29.7378 57.6111 29.1665 58.1528 29.1665 58.821C29.1665 59.4892 29.7378 60.0309 30.4425 60.0309H60.5571C61.2619 60.0309 61.8332 59.4892 61.8332 58.821C61.8332 58.1528 61.2619 57.6111 60.5571 57.6111Z" fill="white"/>
</g>
<g clip-path="url(#clip1_1_3)">
<path d="M60.5571 33.6111H30.4425C29.7378 33.6111 29.1665 34.1528 29.1665 34.821C29.1665 35.4892 29.7378 36.0309 30.4425 36.0309H60.5571C61.2619 36.0309 61.8332 35.4892 61.8332 34.821C61.8332 34.1528 61.2619 33.6111 60.5571 33.6111Z" fill="white"/>
</g>
<g clip-path="url(#clip2_1_3)">
<path d="M60.5571 45.6111H30.4425C29.7378 45.6111 29.1665 46.1528 29.1665 46.821C29.1665 47.4892 29.7378 48.0309 30.4425 48.0309H60.5571C61.2619 48.0309 61.8332 47.4892 61.8332 46.821C61.8332 46.1528 61.2619 45.6111 60.5571 45.6111Z" fill="white"/>
</g>
</g>
<defs>
<filter id="filter0_d_1_3" x="0.583401" y="0.583401" width="89.8332" height="89.8332" filterUnits="userSpaceOnUse" color-interpolation-filters="sRGB">
<feFlood flood-opacity="0" result="BackgroundImageFix"/>
<feColorMatrix in="SourceAlpha" type="matrix" values="0 0 0 0 0 0 0 0 0 0 0 0 0 0 0 0 0 0 127 0" result="hardAlpha"/>
<feOffset/>
<feGaussianBlur stdDeviation="10.2083"/>
<feColorMatrix type="matrix" values="0 0 0 0 0 0 0 0 0 0 0 0 0 0 0 0 0 0 0.15 0"/>
<feBlend mode="normal" in2="BackgroundImageFix" result="effect1_dropShadow_1_3"/>
<feBlend mode="normal" in="SourceGraphic" in2="effect1_dropShadow_1_3" result="shape"/>
</filter>
<clipPath id="clip0_1_3">
<rect width="33" height="4" fill="white" transform="translate(29 57)"/>
</clipPath>
<clipPath id="clip1_1_3">
<rect width="33" height="4" fill="white" transform="translate(29 33)"/>
</clipPath>
<clipPath id="clip2_1_3">
<rect width="33" height="4" fill="white" transform="translate(29 45)"/>
</clipPath>
</defs>
</svg>
