<svg width="34" height="34" viewBox="0 0 34 34" fill="none" xmlns="http://www.w3.org/2000/svg">
<path d="M16.5542 33.126C25.6968 33.126 33.1084 25.7144 33.1084 16.5718C33.1084 7.42916 25.6968 0.0175927 16.5542 0.0175919C7.41159 0.0175911 1.75053e-05 7.42916 1.6706e-05 16.5718C1.59067e-05 25.7144 7.41151 33.126 16.5542 33.126ZM8.5813 15.7804C8.60881 15.7498 8.63791 15.7207 8.66846 15.6932L20.4929 5.0512C20.9868 4.62393 21.7335 4.67783 22.1608 5.17169C22.5762 5.65182 22.5383 6.37425 22.075 6.80831L11.2273 16.5717L22.075 26.3352C22.5516 26.7817 22.576 27.5299 22.1295 28.0065C21.6955 28.4698 20.973 28.5077 20.4929 28.0923L8.66846 17.4503C8.18327 17.0133 8.14426 16.2655 8.5813 15.7804Z" fill="#65C466"/>
</svg>
