<svg width="34" height="34" viewBox="0 0 34 34" fill="none" xmlns="http://www.w3.org/2000/svg">
<path d="M16.5952 0.0178223C7.45258 0.0178223 0.0410156 7.42939 0.0410156 16.572C0.0410156 25.7146 7.45258 33.1262 16.5952 33.1262C25.7378 33.1262 33.1494 25.7146 33.1494 16.572C33.1494 7.42939 25.7379 0.0178223 16.5952 0.0178223ZM24.5681 17.3634C24.5406 17.394 24.5115 17.4231 24.481 17.4506L12.6565 28.0926C12.1626 28.5199 11.4159 28.466 10.9886 27.9721C10.5732 27.492 10.6111 26.7696 11.0744 26.3355L21.9222 16.5721L11.0744 6.80861C10.5978 6.36214 10.5734 5.61388 11.0199 5.13727C11.4539 4.67397 12.1764 4.63607 12.6565 5.0515L24.481 15.6935C24.9661 16.1305 25.0052 16.8782 24.5681 17.3634Z" fill="#65C466"/>
</svg>
