<svg width="21" height="21" viewBox="0 0 21 21" fill="none" xmlns="http://www.w3.org/2000/svg">
<path d="M20.0684 19.1366L14.3342 13.4023C15.4218 12.0596 16.0765 10.3526 16.0765 8.49406C16.0765 4.18564 12.5712 0.68042 8.26282 0.68042C3.9544 0.68042 0.449219 4.18564 0.449219 8.49406C0.449219 12.8025 3.95444 16.3077 8.26286 16.3077C10.1214 16.3077 11.8284 15.653 13.1711 14.5654L18.9054 20.2996C19.066 20.4602 19.3263 20.4602 19.487 20.2996L20.0684 19.7182C20.229 19.5575 20.229 19.2972 20.0684 19.1366ZM8.26286 14.6627C4.86127 14.6627 2.09421 11.8957 2.09421 8.49406C2.09421 5.09247 4.86127 2.32541 8.26286 2.32541C11.6645 2.32541 14.4315 5.09247 14.4315 8.49406C14.4315 11.8957 11.6645 14.6627 8.26286 14.6627Z" fill="#414141"/>
</svg>
